<?xml version="1.0" encoding="utf-8"?>
<!-- Generator: Adobe Illustrator 27.2.0, SVG Export Plug-In . SVG Version: 6.00 Build 0)  -->
<svg version="1.1" id="Ebene_1" xmlns="http://www.w3.org/2000/svg" xmlns:xlink="http://www.w3.org/1999/xlink" x="0px" y="0px"
	 viewBox="0 0 1125 2436" style="enable-background:new 0 0 1125 2436;" xml:space="preserve">
<style type="text/css">
	.st0{opacity:0.43;fill:#FBA92C;}
	.st1{opacity:0.35;fill:#9E9E9E;enable-background:new    ;}
	.st2{fill:url(#SVGID_1_);}
	.st3{opacity:0.36;fill:#959595;enable-background:new    ;}
	.st4{opacity:0.43;fill:#FBA92C;enable-background:new    ;}
	.st5{opacity:0.43;fill:url(#SVGID_00000180326935973835864340000012300709150911036801_);enable-background:new    ;}
	.st6{opacity:0.36;fill:#959595;}
	.st7{fill:#FBA92C;}
</style>
<path class="st0" d="M1227.1,2527.3c164.3,101.4-329,1070.8-420.4,1053.4c-37.9-7.2,32.8-176.4-50-228.2l0,0
	c-110.2-68.9-341.5,164.5-465.4,92.1c-36.5-21.4-46.2-72.4-65.4-174.3c-45-238.9,24.7-334.9-43.2-432.2
	c-64.1-92-150.7-41.1-199.7-120.8c-92.5-150.4,82.8-548.2,310.2-634.4c176-66.7,138.7,206.7,317,86.4
	c211.4-111,336.8-200.8,385.1-81.6c101.2,346.7,41,161.9,135.5,356.9"/>
<path class="st1" d="M122.6-895.7c154.5,38.2,290.9-270.8,462-233c50.5,11.1,86.3,60.8,158,160c167.9,232.5,139.6,352,262,432
	c115.7,75.7,184.9-2.5,278,65c175.7,127.3,182.3,588.8-23,745c-158.9,120.9-395.2,21.2-530,198c-32.5,42.6-39.8,76-87,105
	c-97.4,59.8-268.3,41.5-350-50c-132.7-148.7,22.7-431.5-73-485c-59-33-126.3,69.8-200,52c-229.7-55.6-173.4-1199.7-65-1209
	C-0.4-1119.6,6.6-924.5,122.6-895.7z"/>
<radialGradient id="SVGID_1_" cx="755.7236" cy="2404.0859" r="825.5" gradientTransform="matrix(-0.5 -0.866 -1.7321 1 5161.9756 -2025.42)" gradientUnits="userSpaceOnUse">
	<stop  offset="0" style="stop-color:#FFA92C"/>
	<stop  offset="0.39" style="stop-color:#FFA92D"/>
	<stop  offset="0.53" style="stop-color:#FFAC34"/>
	<stop  offset="0.63" style="stop-color:#FFB140"/>
	<stop  offset="0.72" style="stop-color:#FFB751"/>
	<stop  offset="0.79" style="stop-color:#FFC067"/>
	<stop  offset="0.85" style="stop-color:#FFCB82"/>
	<stop  offset="0.9" style="stop-color:#FFD8A3"/>
	<stop  offset="0.95" style="stop-color:#FFE7C7"/>
	<stop  offset="1" style="stop-color:#FFF8F1"/>
	<stop  offset="1" style="stop-color:#F3EDE7"/>
	<stop  offset="1" style="stop-color:#D9D5D0"/>
	<stop  offset="1" style="stop-color:#C3C0BD"/>
	<stop  offset="1" style="stop-color:#B2B1AF"/>
	<stop  offset="1" style="stop-color:#A6A6A5"/>
	<stop  offset="1" style="stop-color:#9F9F9F"/>
	<stop  offset="1" style="stop-color:#9E9E9E"/>
</radialGradient>
<path class="st2" d="M105.6-911c154.5,38.2,290.9-270.8,462-233c50.5,11.1,86.3,60.8,158,160c167.9,232.5,139.6,352,262,432
	c115.7,75.7,184.9-2.5,278,65c175.7,127.3,182.3,588.8-23,745c-158.9,120.9-395.2,21.2-530,198c-32.5,42.6-39.8,76-87,105
	c-97.4,59.8-268.3,41.5-350-50c-132.7-148.7,22.7-431.5-73-485c-59-33-126.3,69.8-200,52c-229.7-55.6-173.4-1199.7-65-1209
	C-17.5-1134.9-10.5-939.7,105.6-911L105.6-911z"/>
<path class="st3" d="M-858.8,1492c33.7,155.5,371.2,141.9,412.7,312.1c12.2,50.2-16.5,104.3-74.1,212.3
	c-134.8,253.1-254.5,280.4-272.4,425.5c-17,137.2,83.7,164.9,64.1,278.2c-36.9,213.8-448.3,423-679,307.5
	c-178.5-89.4-193.1-345.5-411.2-388.6c-52.6-10.4-85.8-2.2-132.6-31.9c-96.6-61.1-155.5-222.6-109.3-336.2
	c75-184.6,397.4-169.6,403.3-279.2c3.6-67.5-118.3-82.6-134.8-156.6c-51.3-230.7,1000.7-684.2,1056.8-590.9
	C-712,1282.9-884.1,1375.1-858.8,1492L-858.8,1492z"/>
<path class="st4" d="M2543.8,2132.6c33.7,155.5,371.2,141.9,412.7,312.1c12.2,50.2-16.5,104.3-74.1,212.3
	c-134.8,253.1-254.5,280.4-272.4,425.5c-17,137.2,83.7,164.9,64.1,278.2c-36.9,213.8-448.3,423-679,307.5
	c-178.5-89.4-193.1-345.5-411.2-388.6c-52.6-10.4-85.8-2.2-132.6-31.9c-96.6-61.1-155.4-222.6-109.3-336.2
	c75-184.6,397.4-169.6,403.3-279.2c3.6-67.5-118.3-82.6-134.8-156.6c-51.3-230.7,1000.7-684.2,1056.8-590.9
	C2690.6,1923.5,2518.4,2015.7,2543.8,2132.6L2543.8,2132.6z"/>
<radialGradient id="SVGID_00000032629213025498455620000011520431841958248373_" cx="763.1936" cy="2396.196" r="825.5" gradientTransform="matrix(-0.5 -0.866 -1.7321 1 5159.5059 -2003.17)" gradientUnits="userSpaceOnUse">
	<stop  offset="0" style="stop-color:#FFA92C"/>
	<stop  offset="0.39" style="stop-color:#FFA92D"/>
	<stop  offset="0.53" style="stop-color:#FFAC34"/>
	<stop  offset="0.63" style="stop-color:#FFB140"/>
	<stop  offset="0.72" style="stop-color:#FFB751"/>
	<stop  offset="0.79" style="stop-color:#FFC067"/>
	<stop  offset="0.85" style="stop-color:#FFCB82"/>
	<stop  offset="0.9" style="stop-color:#FFD8A3"/>
	<stop  offset="0.95" style="stop-color:#FFE7C7"/>
	<stop  offset="1" style="stop-color:#FFF8F1"/>
	<stop  offset="1" style="stop-color:#F3EDE7"/>
	<stop  offset="1" style="stop-color:#D9D5D0"/>
	<stop  offset="1" style="stop-color:#C3C0BD"/>
	<stop  offset="1" style="stop-color:#B2B1AF"/>
	<stop  offset="1" style="stop-color:#A6A6A5"/>
	<stop  offset="1" style="stop-color:#9F9F9F"/>
	<stop  offset="1" style="stop-color:#9E9E9E"/>
</radialGradient>
<path style="opacity:0.43;fill:url(#SVGID_00000032629213025498455620000011520431841958248373_);enable-background:new    ;" d="
	M113-903.1c154.5,38.2,290.9-270.8,462-233c50.5,11.1,86.3,60.8,158,160c167.9,232.5,139.6,352,262,432c115.7,75.7,184.9-2.5,278,65
	c175.7,127.3,182.3,588.8-23,745c-158.9,120.9-395.2,21.2-530,198c-32.5,42.6-39.8,76-87,105c-97.4,59.8-268.3,41.5-350-50
	c-132.7-148.7,22.7-431.5-73-485c-59-33-126.3,69.8-200,52c-229.7-55.6-173.4-1199.7-65-1209C-10-1127-3-931.8,113-903.1L113-903.1z
	"/>
<path class="st4" d="M3367.9-190c33.7,155.5,371.2,141.9,412.7,312.1c12.2,50.2-16.5,104.3-74.1,212.3
	C3571.7,587.6,3452,614.8,3434.1,760c-17,137.2,83.7,164.9,64.1,278.2c-36.9,213.8-448.3,423-679,307.5
	c-178.5-89.4-193.1-345.5-411.2-388.6c-52.6-10.4-85.8-2.2-132.6-31.9c-96.6-61.1-155.4-222.6-109.3-336.2
	c75-184.6,202.7-755.5,362.5-609.8c3.6-67.5,397.2,149.2,380.8,75.2c-51.3-230.7,525.9-585.4,582-492.1
	C3514.6-399.1,3342.5-306.8,3367.9-190L3367.9-190z"/>
<path class="st6" d="M1237.7,2525.7c164.3,101.4-329,1070.8-420.4,1053.4c-37.9-7.2,32.8-176.4-50-228.2l0,0
	c-110.2-68.9-341.5,164.5-465.4,92.1c-36.5-21.4-46.2-72.4-65.4-174.3c-45-238.9,24.7-334.9-43.2-432.2
	c-64.1-92-150.7-41.1-199.7-120.8c-92.5-150.4,82.8-548.2,310.2-634.4c176-66.7,138.7,206.7,317,86.4c211.4-111,335-197,385.1-81.6
	c101.2,346.7,41,161.9,135.5,356.9"/>
<path class="st7" d="M1211.4,2521.6c164.3,101.4-329,1070.8-420.4,1053.4c-37.9-7.2,32.8-176.4-50-228.2h0
	c-110.2-68.9-341.5,164.5-465.4,92.1c-36.5-21.4-46.2-72.4-65.4-174.3c-45-238.9,24.7-334.9-43.2-432.2
	c-64.1-92-150.7-41.1-199.7-120.8c-92.5-150.4,82.8-548.2,310.2-634.4c176-66.7,138.7,206.7,317,86.4
	c211.4-111,328.4-193.6,385.1-81.6c107.3,348.4,35.2,164.8,135.5,356.9"/>
</svg>
