<?xml version="1.0" encoding="UTF-8"?>
<svg id="Ebene_1" data-name="Ebene 1" xmlns="http://www.w3.org/2000/svg" xmlns:xlink="http://www.w3.org/1999/xlink" viewBox="0 0 1125 2436">
  <defs>
    <style>
      .cls-1, .cls-2 {
        fill: #fba92c;
      }

      .cls-3 {
        fill: #9e9e9e;
        opacity: .35;
      }

      .cls-3, .cls-4, .cls-2, .cls-5 {
        isolation: isolate;
      }

      .cls-4 {
        fill: #959595;
        opacity: .36;
      }

      .cls-2, .cls-5 {
        opacity: .43;
      }

      .cls-6 {
        fill: url(#Unbenannter_Verlauf);
      }

      .cls-5 {
        fill: url(#Unbenannter_Verlauf_2);
      }
    </style>
    <radialGradient id="Unbenannter_Verlauf" data-name="Unbenannter Verlauf" cx="755.72" cy="2404.09" fx="755.72" fy="2404.09" r="825.5" gradientTransform="translate(5161.98 -2025.42) rotate(-120) scale(1 -2)" gradientUnits="userSpaceOnUse">
      <stop offset="0" stop-color="#ffa92c"/>
      <stop offset=".39" stop-color="#ffa92d"/>
      <stop offset=".53" stop-color="#ffac34"/>
      <stop offset=".63" stop-color="#ffb140"/>
      <stop offset=".72" stop-color="#ffb751"/>
      <stop offset=".79" stop-color="#ffc067"/>
      <stop offset=".85" stop-color="#ffcb82"/>
      <stop offset=".9" stop-color="#ffd8a3"/>
      <stop offset=".95" stop-color="#ffe7c7"/>
      <stop offset="1" stop-color="#fff8f1"/>
      <stop offset="1" stop-color="#f3ede7"/>
      <stop offset="1" stop-color="#d9d5d0"/>
      <stop offset="1" stop-color="#c3c0bd"/>
      <stop offset="1" stop-color="#b2b1af"/>
      <stop offset="1" stop-color="#a6a6a5"/>
      <stop offset="1" stop-color="#9f9f9f"/>
      <stop offset="1" stop-color="#9e9e9e"/>
    </radialGradient>
    <radialGradient id="Unbenannter_Verlauf_2" data-name="Unbenannter Verlauf 2" cx="763.19" cy="2396.2" fx="763.19" fy="2396.2" r="825.5" gradientTransform="translate(5159.51 -2003.17) rotate(-120) scale(1 -2)" gradientUnits="userSpaceOnUse">
      <stop offset="0" stop-color="#ffa92c"/>
      <stop offset=".39" stop-color="#ffa92d"/>
      <stop offset=".53" stop-color="#ffac34"/>
      <stop offset=".63" stop-color="#ffb140"/>
      <stop offset=".72" stop-color="#ffb751"/>
      <stop offset=".79" stop-color="#ffc067"/>
      <stop offset=".85" stop-color="#ffcb82"/>
      <stop offset=".9" stop-color="#ffd8a3"/>
      <stop offset=".95" stop-color="#ffe7c7"/>
      <stop offset="1" stop-color="#fff8f1"/>
      <stop offset="1" stop-color="#f3ede7"/>
      <stop offset="1" stop-color="#d9d5d0"/>
      <stop offset="1" stop-color="#c3c0bd"/>
      <stop offset="1" stop-color="#b2b1af"/>
      <stop offset="1" stop-color="#a6a6a5"/>
      <stop offset="1" stop-color="#9f9f9f"/>
      <stop offset="1" stop-color="#9e9e9e"/>
    </radialGradient>
  </defs>
  <path class="cls-3" d="m122.6-895.74c154.49,38.22,290.88-270.76,462-233,50.5,11.14,86.33,60.76,158,160,167.88,232.47,139.6,351.97,262,432,115.73,75.66,184.91-2.46,278,65,175.67,127.3,182.3,588.82-23,745-158.9,120.89-395.23,21.17-530,198-32.49,42.63-39.79,76.02-87,105-97.44,59.81-268.31,41.52-350-50-132.72-148.69,22.73-431.49-73-485C160.6,8.28,93.28,111.09,19.6,93.26-210.13,37.67-153.85-1106.46-45.4-1115.74c44.95-3.85,51.95,191.29,168,220Z"/>
  <path class="cls-6" d="m105.57-911.01c154.49,38.22,290.88-270.76,462-233,50.5,11.14,86.33,60.76,158,160,167.88,232.47,139.6,351.97,262,432,115.73,75.66,184.91-2.46,278,65,175.67,127.3,182.3,588.82-23,745-158.9,120.89-395.23,21.17-530,198-32.49,42.63-39.79,76.02-87,105-97.44,59.81-268.31,41.52-350-50-132.72-148.69,22.73-431.49-73-485C143.57-6.99,76.25,95.82,2.57,77.99-227.16,22.4-170.88-1121.73-62.43-1131.01c44.95-3.85,51.95,191.29,168,220h0Z"/>
  <path class="cls-4" d="m941.76,2164.25c33.73,155.53,371.2,141.88,412.67,312.14,12.24,50.24-16.52,104.27-74.05,212.32-134.75,253.11-254.5,280.36-272.44,425.5-16.96,137.22,83.66,164.92,64.09,278.21-36.91,213.78-448.33,423.01-678.97,307.49-178.52-89.41-193.09-345.5-411.2-388.61-52.59-10.39-85.77-2.23-132.59-31.86-96.61-61.14-155.45-222.59-109.27-336.24,75.03-184.65,397.39-169.65,403.27-279.16,3.62-67.49-118.33-82.65-134.78-156.65-51.28-230.73,1000.68-684.15,1056.78-590.87,23.25,38.66-148.85,130.89-123.51,247.73h0Z"/>
  <path class="cls-1" d="m920.65,2148.3c33.73,155.53,371.2,141.88,412.67,312.14,12.24,50.24-16.52,104.27-74.05,212.32-134.75,253.11-254.5,280.36-272.44,425.5-16.96,137.22,83.66,164.92,64.09,278.21-36.91,213.78-448.33,423.01-678.97,307.49-178.52-89.41-193.09-345.5-411.2-388.61-52.59-10.39-85.77-2.23-132.59-31.86-96.61-61.14-155.45-222.59-109.27-336.24,75.03-184.65,397.39-169.65,403.27-279.16,3.62-67.49-118.33-82.65-134.78-156.65-51.28-230.73,1000.68-684.15,1056.78-590.87,23.25,38.66-148.85,130.89-123.51,247.73h0Z"/>
  <path class="cls-2" d="m870.17,2151.35c33.73,155.53,371.2,141.88,412.67,312.14,12.24,50.24-16.52,104.27-74.05,212.32-134.75,253.11-254.5,280.36-272.44,425.5-16.96,137.22,83.66,164.92,64.09,278.21-36.91,213.78-448.33,423.01-678.97,307.49-178.52-89.41-193.09-345.5-411.2-388.61-52.59-10.39-85.77-2.23-132.59-31.86-96.61-61.14-155.45-222.59-109.27-336.24,75.03-184.65,397.39-169.65,403.27-279.16,3.62-67.49-118.33-82.65-134.78-156.65-51.28-230.73,1000.68-684.15,1056.78-590.87,23.25,38.66-148.85,130.89-123.51,247.73h0Z"/>
  <path class="cls-5" d="m113.03-903.12c154.49,38.22,290.88-270.76,462-233,50.5,11.14,86.33,60.76,158,160,167.88,232.47,139.6,351.97,262,432,115.73,75.66,184.91-2.46,278,65,175.67,127.3,182.3,588.82-23,745-158.9,120.89-395.23,21.17-530,198-32.49,42.63-39.79,76.02-87,105-97.44,59.81-268.31,41.52-350-50-132.72-148.69,22.73-431.49-73-485C151.03.9,83.71,103.71,10.03,85.88-219.7,30.29-163.42-1113.84-54.97-1123.12c44.95-3.85,51.95,191.29,168,220h0Z"/>
  <path class="cls-2" d="m895.33,2151.75c33.73,155.53,371.2,141.88,412.67,312.14,12.24,50.24-16.52,104.27-74.05,212.32-134.75,253.11-254.5,280.36-272.44,425.5-16.96,137.22,83.66,164.92,64.09,278.21-36.91,213.78-448.33,423.01-678.97,307.49-178.52-89.41-193.09-345.5-411.2-388.61-52.59-10.39-85.77-2.23-132.59-31.86-96.61-61.14-155.45-222.59-109.27-336.24,75.03-184.65,397.39-169.65,403.27-279.16,3.62-67.49-118.33-82.65-134.78-156.65-51.28-230.73,1000.68-684.15,1056.78-590.87,23.25,38.66-148.85,130.89-123.51,247.73h0Z"/>
</svg>