<?xml version="1.0" encoding="UTF-8"?>
<svg id="Ebene_1" data-name="Ebene 1" xmlns="http://www.w3.org/2000/svg" xmlns:xlink="http://www.w3.org/1999/xlink" viewBox="0 0 1125 2436">
  <defs>
    <style>
      .cls-1 {
        fill: url(#Unbenannter_Verlauf_69-2);
      }

      .cls-1, .cls-2 {
        opacity: .43;
      }

      .cls-3, .cls-2 {
        fill: #fba92c;
      }

      .cls-4 {
        fill: url(#Unbenannter_Verlauf_69);
      }

      .cls-5 {
        fill: #959595;
        opacity: .36;
      }

      .cls-6 {
        fill: #9e9e9e;
        opacity: .35;
      }
    </style>
    <radialGradient id="Unbenannter_Verlauf_69" data-name="Unbenannter Verlauf 69" cx="577.01" cy="-44.56" fx="577.01" fy="-44.56" r="825.5" gradientTransform="translate(942.7 410.58) rotate(-120) scale(1 2)" gradientUnits="userSpaceOnUse">
      <stop offset="0" stop-color="#ffa92c"/>
      <stop offset=".39" stop-color="#ffa92d"/>
      <stop offset=".53" stop-color="#ffac34"/>
      <stop offset=".63" stop-color="#ffb140"/>
      <stop offset=".72" stop-color="#ffb751"/>
      <stop offset=".79" stop-color="#ffc067"/>
      <stop offset=".85" stop-color="#ffcb82"/>
      <stop offset=".9" stop-color="#ffd8a3"/>
      <stop offset=".95" stop-color="#ffe7c7"/>
      <stop offset="1" stop-color="#fff8f1"/>
      <stop offset="1" stop-color="#f3ede7"/>
      <stop offset="1" stop-color="#d9d5d0"/>
      <stop offset="1" stop-color="#c3c0bd"/>
      <stop offset="1" stop-color="#b2b1af"/>
      <stop offset="1" stop-color="#a6a6a5"/>
      <stop offset="1" stop-color="#9f9f9f"/>
      <stop offset="1" stop-color="#9e9e9e"/>
    </radialGradient>
    <radialGradient id="Unbenannter_Verlauf_69-2" data-name="Unbenannter Verlauf 69" cx="584.48" cy="-36.67" fx="584.48" fy="-36.67" r="825.5" gradientTransform="translate(940.23 432.83) rotate(-120) scale(1 2)" xlink:href="#Unbenannter_Verlauf_69"/>
  </defs>
  <path class="cls-6" d="m79.5-664.5c154.49,38.22,290.88-270.76,462-233,50.5,11.14,86.33,60.76,158,160,167.88,232.47,139.6,351.97,262,432,115.73,75.66,184.91-2.46,278,65,175.67,127.3,182.3,588.82-23,745-158.9,120.89-395.23,21.17-530,198-32.49,42.63-39.79,76.02-87,105-97.44,59.81-268.31,41.52-350-50-132.72-148.69,22.73-431.49-73-485-59-32.98-126.32,69.83-200,52-229.73-55.59-173.45-1199.72-65-1209,44.95-3.85,51.95,191.29,168,220Z"/>
  <path class="cls-4" d="m62.47-679.77c154.49,38.22,290.88-270.76,462-233,50.5,11.14,86.33,60.76,158,160,167.88,232.47,139.6,351.97,262,432,115.73,75.66,184.91-2.46,278,65,175.67,127.3,182.3,588.82-23,745-158.9,120.89-395.23,21.17-530,198-32.49,42.63-39.79,76.02-87,105-97.44,59.81-268.31,41.52-350-50-132.72-148.69,22.73-431.49-73-485-59-32.98-126.32,69.83-200,52-229.73-55.59-173.45-1199.72-65-1209,44.95-3.85,51.95,191.29,168,220Z"/>
  <path class="cls-5" d="m941.76,2101.16c33.73,155.53,371.2,141.88,412.67,312.14,12.24,50.24-16.52,104.27-74.05,212.32-134.75,253.11-254.5,280.36-272.44,425.5-16.96,137.22,83.66,164.92,64.09,278.21-36.91,213.78-448.33,423.01-678.97,307.49-178.52-89.41-193.09-345.5-411.2-388.61-52.59-10.39-85.77-2.23-132.59-31.86-96.61-61.14-155.45-222.59-109.27-336.24,75.03-184.65,397.39-169.65,403.27-279.16,3.62-67.49-118.33-82.65-134.78-156.65-51.28-230.73,1000.68-684.15,1056.78-590.87,23.25,38.66-148.85,130.89-123.51,247.73Z"/>
  <path class="cls-3" d="m920.65,2085.21c33.73,155.53,371.2,141.88,412.67,312.14,12.24,50.24-16.52,104.27-74.05,212.32-134.75,253.11-254.5,280.36-272.44,425.5-16.96,137.22,83.66,164.92,64.09,278.21-36.91,213.78-448.33,423.01-678.97,307.49-178.52-89.41-193.09-345.5-411.2-388.61-52.59-10.39-85.77-2.23-132.59-31.86-96.61-61.14-155.45-222.59-109.27-336.24,75.03-184.65,397.39-169.65,403.27-279.16,3.62-67.49-118.33-82.65-134.78-156.65-51.28-230.73,1000.68-684.15,1056.78-590.87,23.25,38.66-148.85,130.89-123.51,247.73Z"/>
  <path class="cls-2" d="m870.17,2088.26c33.73,155.53,371.2,141.88,412.67,312.14,12.24,50.24-16.52,104.27-74.05,212.32-134.75,253.11-254.5,280.36-272.44,425.5-16.96,137.22,83.66,164.92,64.09,278.21-36.91,213.78-448.33,423.01-678.97,307.49-178.52-89.41-193.09-345.5-411.2-388.61-52.59-10.39-85.77-2.23-132.59-31.86-96.61-61.14-155.45-222.59-109.27-336.24,75.03-184.65,397.39-169.65,403.27-279.16,3.62-67.49-118.33-82.65-134.78-156.65-51.28-230.73,1000.68-684.15,1056.78-590.87,23.25,38.66-148.85,130.89-123.51,247.73Z"/>
  <path class="cls-1" d="m69.93-671.88c154.49,38.22,290.88-270.76,462-233,50.5,11.14,86.33,60.76,158,160,167.88,232.47,139.6,351.97,262,432,115.73,75.66,184.91-2.46,278,65,175.67,127.3,182.3,588.82-23,745-158.9,120.89-395.23,21.17-530,198-32.49,42.63-39.79,76.02-87,105-97.44,59.81-268.31,41.52-350-50-132.72-148.69,22.73-431.49-73-485-59-32.98-126.32,69.83-200,52-229.73-55.59-173.45-1199.72-65-1209,44.95-3.85,51.95,191.29,168,220Z"/>
  <path class="cls-2" d="m895.33,2088.66c33.73,155.53,371.2,141.88,412.67,312.14,12.24,50.24-16.52,104.27-74.05,212.32-134.75,253.11-254.5,280.36-272.44,425.5-16.96,137.22,83.66,164.92,64.09,278.21-36.91,213.78-448.33,423.01-678.97,307.49-178.52-89.41-193.09-345.5-411.2-388.61-52.59-10.39-85.77-2.23-132.59-31.86-96.61-61.14-155.45-222.59-109.27-336.24,75.03-184.65,397.39-169.65,403.27-279.16,3.62-67.49-118.33-82.65-134.78-156.65-51.28-230.73,1000.68-684.15,1056.78-590.87,23.25,38.66-148.85,130.89-123.51,247.73Z"/>
</svg>